<?xml version="1.0" standalone="no"?>
<!DOCTYPE svg PUBLIC "-//W3C//DTD SVG 20010904//EN"
 "http://www.w3.org/TR/2001/REC-SVG-20010904/DTD/svg10.dtd">
<svg version="1.0" xmlns="http://www.w3.org/2000/svg"
 width="166.000000pt" height="168.000000pt" viewBox="0 0 166.000000 168.000000"
 preserveAspectRatio="xMidYMid meet">
<metadata>
Created by potrace 1.16, written by Peter Selinger 2001-2019
</metadata>
<g transform="translate(0.000000,168.000000) scale(0.100000,-0.100000)"
fill="#000000" stroke="none">
<path d="M0 840 l0 -840 830 0 830 0 0 840 0 840 -830 0 -830 0 0 -840z m590
385 c57 -29 68 -102 24 -154 -22 -27 -32 -31 -74 -31 -42 0 -52 4 -74 31 -43
51 -33 124 22 153 35 20 66 20 102 1z m540 0 c37 -19 50 -43 50 -93 0 -56 -37
-92 -95 -92 -60 0 -95 34 -95 92 0 86 67 131 140 93z m-490 -387 c0 -79 5
-159 10 -179 10 -36 45 -82 69 -90 10 -4 9 -22 -5 -87 -9 -45 -23 -82 -29 -82
-28 0 -117 55 -155 96 -75 82 -84 115 -88 312 l-4 172 101 0 101 0 0 -142z
m538 -55 c-3 -188 -4 -200 -28 -247 -49 -95 -144 -145 -297 -153 -51 -3 -93
-4 -93 -2 1 2 9 37 19 78 l17 73 45 4 c57 5 88 29 119 90 23 45 25 62 28 202
l4 152 94 0 95 0 -3 -197z"/>
</g>
</svg>
